<svg width="24" height="24" viewBox="0 0 24 24" fill="none" xmlns="http://www.w3.org/2000/svg">
<path d="M8.45977 12.71L14.1198 18.36C14.2127 18.4537 14.3233 18.5281 14.4452 18.5789C14.5671 18.6296 14.6978 18.6558 14.8298 18.6558C14.9618 18.6558 15.0925 18.6296 15.2144 18.5789C15.3362 18.5281 15.4468 18.4537 15.5398 18.36C15.726 18.1726 15.8306 17.9191 15.8306 17.655C15.8306 17.3908 15.726 17.1373 15.5398 16.95L10.5898 11.95L15.5398 6.99996C15.726 6.8126 15.8306 6.55915 15.8306 6.29496C15.8306 6.03078 15.726 5.77733 15.5398 5.58996C15.4472 5.49548 15.3367 5.42031 15.2148 5.36881C15.093 5.31731 14.9621 5.29051 14.8298 5.28996C14.6975 5.29051 14.5666 5.31731 14.4447 5.36881C14.3228 5.42031 14.2124 5.49548 14.1198 5.58996L8.45977 11.24C8.35827 11.3336 8.27726 11.4473 8.22185 11.5738C8.16645 11.7003 8.13784 11.8369 8.13784 11.975C8.13784 12.1131 8.16645 12.2497 8.22185 12.3762C8.27726 12.5027 8.35827 12.6163 8.45977 12.71Z" fill="black"/>
</svg>
