<svg viewBox="0 0 24 24" fill="none" xmlns="http://www.w3.org/2000/svg">
  <g id="web-icon- 1">
    <path id="Vector"
      d="M19.5299 8.12383H16.4676V10.0246H19.5299V8.12383ZM19.5299 10.543H16.4676V12.4447H19.5299V10.543ZM19.5299 5.70463H16.4676V7.60543H19.5299V5.70463ZM19.5299 15.295H16.4676V17.1967H19.5299V15.295ZM20.9375 3.80383H13.5729C13.4875 3.80392 13.4029 3.82113 13.3242 3.85445V1.80005L2.3999 3.97663V18.8235L13.3242 21V19.0486C13.4029 19.0819 13.4875 19.0992 13.5729 19.0993H20.9375C21.3032 19.0993 21.5999 18.7886 21.5999 18.4081V4.49503C21.599 4.11365 21.3032 3.80383 20.9375 3.80383ZM9.76539 14.6056L8.44152 14.5192L7.44927 12.0127L6.37325 14.3472L5.13141 14.2608L6.70312 11.407L5.29722 8.29663L6.53819 8.21023L7.3655 10.543H7.53043L8.44065 8.03656L9.76451 7.95103L8.1099 11.2342L9.76539 14.6056ZM20.7717 18.2344H13.3233V17.1976H15.8053V15.2959H13.3233V14.8648H15.8053V12.964H13.3233V12.4456H15.8053V10.5439H13.3233V10.0246H15.8053V8.12383H13.3233V7.6063H15.8053V5.70463H13.3233V4.66783H20.7717V18.2344ZM19.5299 12.9631H16.4676V14.8639H19.5299V12.9631Z"
      fill="#63A63E" />
  </g>
</svg>
