<svg width="17" height="17" viewBox="0 0 17 17" fill="none" xmlns="http://www.w3.org/2000/svg">
<path d="M7.8335 8.50016H2.50016C2.32335 8.50016 2.15378 8.5704 2.02876 8.69542C1.90373 8.82045 1.8335 8.99002 1.8335 9.16683V14.5002C1.8335 14.677 1.90373 14.8465 2.02876 14.9716C2.15378 15.0966 2.32335 15.1668 2.50016 15.1668H7.8335C8.01031 15.1668 8.17988 15.0966 8.3049 14.9716C8.42992 14.8465 8.50016 14.677 8.50016 14.5002V9.16683C8.50016 8.99002 8.42992 8.82045 8.3049 8.69542C8.17988 8.5704 8.01031 8.50016 7.8335 8.50016ZM7.16683 13.8335H3.16683V9.8335H7.16683V13.8335ZM15.1135 2.24683C15.0458 2.08393 14.9164 1.95448 14.7535 1.88683C14.6733 1.85267 14.5873 1.83455 14.5002 1.8335H10.5002C10.3234 1.8335 10.1538 1.90373 10.0288 2.02876C9.90373 2.15378 9.8335 2.32335 9.8335 2.50016C9.8335 2.67697 9.90373 2.84654 10.0288 2.97157C10.1538 3.09659 10.3234 3.16683 10.5002 3.16683H12.8935L9.36016 6.6935C9.29768 6.75547 9.24808 6.82921 9.21423 6.91044C9.18039 6.99168 9.16296 7.07882 9.16296 7.16683C9.16296 7.25484 9.18039 7.34197 9.21423 7.42321C9.24808 7.50445 9.29768 7.57819 9.36016 7.64016C9.42214 7.70265 9.49587 7.75224 9.57711 7.78609C9.65835 7.81994 9.74549 7.83736 9.8335 7.83736C9.9215 7.83736 10.0086 7.81994 10.0899 7.78609C10.1711 7.75224 10.2449 7.70265 10.3068 7.64016L13.8335 4.10683V6.50016C13.8335 6.67697 13.9037 6.84654 14.0288 6.97157C14.1538 7.09659 14.3234 7.16683 14.5002 7.16683C14.677 7.16683 14.8465 7.09659 14.9716 6.97157C15.0966 6.84654 15.1668 6.67697 15.1668 6.50016V2.50016C15.1658 2.41304 15.1477 2.32698 15.1135 2.24683Z" fill="white"/>
</svg>
