<svg width="72" height="72" viewBox="0 0 72 72" fill="none" xmlns="http://www.w3.org/2000/svg">
<g id="zanwuziyuan-2 1" clip-path="url(#clip0_79_817)">
<path id="Vector" d="M45.3676 4.45923L57.4453 16.7347V45.5498C61.3877 47.3619 64.125 51.3458 64.125 55.9688C64.125 62.2985 58.9937 67.4298 52.6641 67.4298C52.4497 67.4298 52.2367 67.4239 52.0253 67.4123C51.7739 67.4432 51.5178 67.4592 51.2578 67.4592H9.5625C8.63051 67.4592 7.875 66.7037 7.875 65.7717V6.14673C7.875 5.21474 8.63051 4.45923 9.5625 4.45923H45.3676Z" fill="#C5C5C5" fill-opacity="0.4"/>
<path id="Vector_2" d="M16.5234 24.5391H48.5859C48.7734 24.5391 48.8672 24.6328 48.8672 24.8203V25.9453C48.8672 26.1328 48.7734 26.2266 48.5859 26.2266H16.5234C16.3359 26.2266 16.2422 26.1328 16.2422 25.9453V24.8203C16.2422 24.6328 16.3359 24.5391 16.5234 24.5391Z" fill="#ABABAB" fill-opacity="0.574"/>
<path id="Vector_3" d="M16.5234 37.4766H48.5859C48.7734 37.4766 48.8672 37.5703 48.8672 37.7578V38.8828C48.8672 39.0703 48.7734 39.1641 48.5859 39.1641H16.5234C16.3359 39.1641 16.2422 39.0703 16.2422 38.8828V37.7578C16.2422 37.5703 16.3359 37.4766 16.5234 37.4766Z" fill="#ABABAB" fill-opacity="0.574"/>
<path id="Vector_4" d="M16.5234 50.4141H32.2734C32.4609 50.4141 32.5547 50.5078 32.5547 50.6953V51.8203C32.5547 52.0078 32.4609 52.1016 32.2734 52.1016H16.5234C16.3359 52.1016 16.2422 52.0078 16.2422 51.8203V50.6953C16.2422 50.5078 16.3359 50.4141 16.5234 50.4141Z" fill="#ABABAB" fill-opacity="0.574"/>
<path id="Vector_5" d="M41.2031 55.9688C41.2031 59.0084 42.4106 61.9235 44.56 64.0729C46.7093 66.2222 49.6244 67.4297 52.6641 67.4297C55.7037 67.4297 58.6188 66.2222 60.7682 64.0729C62.9175 61.9235 64.125 59.0084 64.125 55.9688C64.125 52.9291 62.9175 50.014 60.7682 47.8646C58.6188 45.7153 55.7037 44.5078 52.6641 44.5078C49.6244 44.5078 46.7093 45.7153 44.56 47.8646C42.4106 50.014 41.2031 52.9291 41.2031 55.9688Z" fill="#C5C5C5" fill-opacity="0.461"/>
<path id="Vector_6" d="M45.3677 4.45923V15.6097C45.3677 16.231 45.8713 16.7347 46.4927 16.7347H57.4454L45.3677 4.45923Z" fill="#ABABAB" fill-opacity="0.6"/>
<path id="Vector_7" d="M53.8242 59.7305C53.8988 59.7305 53.9703 59.7601 54.0231 59.8128C54.0758 59.8656 54.1055 59.9371 54.1055 60.0117V62.2617C54.1055 62.3363 54.0758 62.4078 54.0231 62.4606C53.9703 62.5133 53.8988 62.543 53.8242 62.543H51.5742C51.4996 62.543 51.4281 62.5133 51.3753 62.4606C51.3226 62.4078 51.293 62.3363 51.293 62.2617V60.0117C51.293 59.9371 51.3226 59.8656 51.3753 59.8128C51.4281 59.7601 51.4996 59.7305 51.5742 59.7305H53.8242ZM53.6836 49.3945C53.7582 49.3945 53.8297 49.4242 53.8825 49.4769C53.9352 49.5297 53.9648 49.6012 53.9648 49.6758V58.043C53.9648 58.1176 53.9352 58.1891 53.8825 58.2418C53.8297 58.2946 53.7582 58.3242 53.6836 58.3242H51.7148C51.6403 58.3242 51.5687 58.2946 51.516 58.2418C51.4632 58.1891 51.4336 58.1176 51.4336 58.043V49.6758C51.4336 49.6012 51.4632 49.5297 51.516 49.4769C51.5687 49.4242 51.6403 49.3945 51.7148 49.3945H53.6836Z" fill="black" fill-opacity="0.302"/>
</g>
<defs>
<clipPath id="clip0_79_817">
<rect width="72" height="72" fill="white"/>
</clipPath>
</defs>
</svg>
